<mxfile host="app.diagrams.net" agent="Mozilla/5.0 (Windows NT 10.0; Win64; x64) AppleWebKit/537.36 (KHTML, like Gecko) Chrome/131.0.0.0 Safari/537.36 Edg/131.0.0.0" version="25.0.1">
  <diagram name="Page-1" id="wBEaYxR1wr_8EZAuykxx">
    <mxGraphModel dx="2066" dy="1149" grid="1" gridSize="10" guides="1" tooltips="1" connect="1" arrows="1" fold="1" page="1" pageScale="1" pageWidth="850" pageHeight="1100" math="0" shadow="0">
      <root>
        <mxCell id="0" />
        <mxCell id="1" parent="0" />
        <mxCell id="tJo2UHxSemPMku4j-86V-1" value="" style="rounded=0;whiteSpace=wrap;html=1;fillColor=none;" vertex="1" parent="1">
          <mxGeometry x="80" y="120" width="680" height="960" as="geometry" />
        </mxCell>
        <mxCell id="tJo2UHxSemPMku4j-86V-2" value="" style="rounded=0;whiteSpace=wrap;html=1;" vertex="1" parent="1">
          <mxGeometry x="160" y="200" width="520" height="40" as="geometry" />
        </mxCell>
        <mxCell id="tJo2UHxSemPMku4j-86V-3" value="" style="rounded=0;whiteSpace=wrap;html=1;" vertex="1" parent="1">
          <mxGeometry x="160" y="280" width="520" height="40" as="geometry" />
        </mxCell>
        <mxCell id="tJo2UHxSemPMku4j-86V-4" value="" style="rounded=0;whiteSpace=wrap;html=1;" vertex="1" parent="1">
          <mxGeometry x="160" y="360" width="520" height="40" as="geometry" />
        </mxCell>
        <mxCell id="tJo2UHxSemPMku4j-86V-5" value="Travel agency :" style="text;html=1;align=left;verticalAlign=middle;whiteSpace=wrap;rounded=0;" vertex="1" parent="1">
          <mxGeometry x="160" y="170" width="190" height="30" as="geometry" />
        </mxCell>
        <mxCell id="tJo2UHxSemPMku4j-86V-6" value="Tour :" style="text;html=1;align=left;verticalAlign=middle;whiteSpace=wrap;rounded=0;" vertex="1" parent="1">
          <mxGeometry x="160" y="250" width="190" height="30" as="geometry" />
        </mxCell>
        <mxCell id="tJo2UHxSemPMku4j-86V-7" value="Tour guide :" style="text;html=1;align=left;verticalAlign=middle;whiteSpace=wrap;rounded=0;" vertex="1" parent="1">
          <mxGeometry x="160" y="330" width="190" height="30" as="geometry" />
        </mxCell>
      </root>
    </mxGraphModel>
  </diagram>
</mxfile>
